/* XPM */
static char *_0b85bc8197746ffb6e6a7dc45e35ccfqaJv6C61T702yZzy[] = {
/* columns rows colors chars-per-pixel */
"64 64 44 1 ",
"  c #002D00",
". c #003000",
"X c #003F00",
"o c #004200",
"O c #004500",
"+ c #004A00",
"@ c #004E00",
"# c #005300",
"$ c #005400",
"% c #005B00",
"& c #005E00",
"* c #006300",
"= c #006500",
"- c #006A00",
"; c #006F00",
": c #007300",
"> c #007400",
", c #007A00",
"< c #007D00",
"1 c #008000",
"2 c #008600",
"3 c #008A00",
"4 c #008E00",
"5 c #009100",
"6 c #009600",
"7 c #009A00",
"8 c #009E00",
"9 c #00A200",
"0 c #00A700",
"q c #00A900",
"w c #00AE00",
"e c #00B100",
"r c #00B400",
"t c #00BA00",
"y c #00BD00",
"u c #00C200",
"i c #00C700",
"p c #00C900",
"a c #00CE00",
"s c #00D000",
"d c #00D400",
"f c #00D900",
"g c #00DC00",
"h c #00DE00",
/* pixels */
"=ppppit+-=>,sfgfsu>177357322tyyppaaaaapwrq:$52-s6tw4p4->$,,8ewq8",
":pppiu>2>-5dffgfff74098008847ytpe0etyy0;3; -;=ay4u2>*=>3,@*+1-<>",
"=ppip8O1,9ddffgfdd,99880w09798wt4tuiq71;tr75rew62y31-2>w8<*$1&55",
"2wiie=1:5<wsffffsf5q8q7wwwe5#745tryy53286ut0=<22<59tyae1t7:2155e",
"6=t84rye0126ufffs9qw68688768%>,rtqw0,8puq75u6%54>tafggttyr;,;*O&",
"<>51uyyu7,<,<y66370079780968>1990876>3dwpw8ur1r7esfgggy2yt63w523",
"5yuuyyuu211<X:;5<02;6083qqyr7@->#=>2117wddtutqd0ifsddfp1tyr5tte:",
"wuuuyyuw0q09*$<w95=<9992qwpiq2=:%w167736qede4qa5afggsd2=trr7ryy<",
"tuuuutr4rewe,6rrr=O;tiq7upipr6:##9truu020wp81i<tpdff7q76856,2ty3",
"tuuuuyw4yrq18tire><e0wu9iiiiry;3<tyr70e8e506t66yysff79euuyu962t4",
"yutew66332e4wuut812tt5q0tuuyet;r5qy39ryu8qwei93usppy48updaaae2t<",
"0w0771#<56410uiiw7ert9rqeettey7s50r29ty6<70y603rriq386tadpsss6%$",
"6776ss337873uiuiy97w90i09euuty-is780rqr06764:y9716>26<<yapssdi2O",
"dddddsa59886uiii6900rri1<9ppuu589i448143020<6tq1<24380617assss93",
"ddssapi89780tiiu4>2yayu7=4ypie4u=262;&$*50wq28:<0qqreyiw6yasssq-",
"73sssap453e5qui,5-*rstr8=-6qt629:67#%,*O;590wtu2679qitr91ytutr5+",
"o%tssspy32we2974w<,qui83*1,485y8*44#2q536ui8954054qerrye490::*;1",
"2=>3py71=*48ee8yiy3<995e-6:943e53prO,w0quuiqe59r898eru08344;8795",
"eq6-521<02:4q8iapai6=198,>O>0e843p2:31<quii0irypie6tue642u66eree",
"re0&-2errr1-*8ppappp6<*4>7%166*564;9w36qy571ittuuu5rrw785139weee",
"re5275rrrte&@8ppapapeq0y09:1>3wtuer867#&9&4-ty0wrr499320tw21wrrr",
"re2<1ertrr7:>4paaapt,51>>r27ippsaaay8r-o&29<-w2iwe9ty9124e7<<rrr",
"e766<q570002t2tpppt0>w<284;8aassdsst-44;8ey3,378229y06qeq8uw61we",
"93=e91257849u3wytq>,1536512iaassssse5q<5r280err8626q16yppeqpy269",
"==506;2867-8e458>*18800wq4>assssdae7,1-<14ryyyyw7213%:usaue0a3<>",
"8 @->4-3wq958566<*5q0eere0;655ssaq&<1-4*0yyytuyt277e=;8saaiwa03w",
"i;&,=,3:0uuwq6ui64weqeerr*1wq983$==8rw3;tyyytuyq;31<;52rpaart3ep",
"i8$>7er6qeetw5ii6eewwrerr6ryytee4=8upp4>tuuyyyt4rtq59i47eia9e56p",
"pt<0yuuwyttuqpi27erreer15tuyuyyuyw13pie,uuyyutq4tyr>290u7q78tqip",
"prtyuipwututpiu39eerrwq2ryyyuyuyuur6ipp3yyytw2;&tyy37tqii69000ip",
"ayeiipp9uuu3ipr:=84974@<eyuuyuuuye5pppp49894%+&:*238ti9yu5werwup",
"paaapaa8iue,tr56<=&=2%<*>7wyuyytw94ppppO&><%>3at6,ot33-23*wyyyyp",
"iaaaaaiwrq;$52-s6yw4p4->#,,8ewq7=ppppit@-=:,sfgfsu>276357322tyyp",
"e0etut0;3;.---ay4y2>==,3,@&+1;<,>pippu>1>-4dfggffd64098009846yyp",
"4tiuq71;yr75rew62y32-<,q8<*$1*54-iiip8O2,9ddfgffdd,9988qq09798wt",
"tryy53286ut0=<31<59ruaw1t8:2<45e2wiie=1;5<eaffffdf5q8q8qewe5#754",
"tqe0,8pu075u7%44>tafggyttr;,;*O&6=t84eye0<27yfgds90w68689777%><r",
"0875>3dwpw8ur<t7edffggy2yt63w523<>51yuuu7<<><y66470q79780959>199",
"#=:2<18qddyutqs0pgsddfi1tye5tre>5yyuyuuu211<o::5<02;6083qqyr7@->",
"%w267737qwde4qs5pfggss2=trt6tyy<qiuiytyw0qq9*#,e86*199910wiiq2=>",
"#9truu92qwp81i,tpsfg7077956,2yy3tuuuuyr4rewe,5trr=O;tiq7upipt6>#",
"<tye70e8r406t66yysfd79ryutu971t4tiuyyye4yrq18yuee>,r0eu9iiiiey;3",
"5qy39ryu8qeep94uspay48iidasae2y<tutrw65332e5quut812rt500tuuter;r",
"50r39ty6<89y603eyu0386tpdpsss6%$qw9862$<564<0iiiw7ert0rqwrttry7s",
"s689r0r05764>y9816>27,<yppsdsi2o6776ss237873iuiuu96w90i99eyiyy;u",
"0i448243020<6t01<24399527aasss83dddddda59986uiip6900rti1<9ppuu58",
"=273;&$*50wq28;<00qreuiw7yasssq;fsssapp8977qyiiu3,2ysyu8=4yiie4u",
":66#$,*+:590qyu2679qitr81ttutt4@63sssap453w5qui,5-*eate8=-6qt629",
"*43$2q636uu8944055qerete490::*;1o%tssspy32ee2974w<<qui83*1,484y8",
"3itO,e9qiuiwe69r708eru08444;88852->3py71==38ee8yiy3<804r-6:943e5",
"3i1>3<<quuiqprypur6yue742u67ereeeq6=511<92:3q8ippai5=<98,:O>0r74",
"74;0w36qy561prtuuu5erw785<29qerrre0&-3rrrr2-&9apapap6<*4>7%166=5",
"yer777#&9&3;ty0wrr499220rw11eerrre5284rrrrr*@8pppaapeq0y09:1>3wt",
"saau8e-X&29<-w2iww0ty0<24e81<rrrre2<1etrtr7;>3papapt,51>:t26uppa",
"sssy-44:8ey3<368239y06qew8uw71wew767<q569002t2tpapt0,w,374:8asss",
"ssde4q<5e37qwrr9526q16taie0py26893=e9<267849i3wytq>,<545422iaass",
"sae7,2-,23eyuyyq7222&:uaaue0a3<:=-506;2776-7e458>=18800w04>aaaas",
"a0&1<-4*qtyytyyy266e=;8saaiwa03w7 @-:4-3wq967566,&6q0eere0;656ss",
"$==8tw2;tyuyyyuq:31<-52rpaarr4epi;&,=,3:0yyww6ii73wewwrrr*1eq984",
"4-8yii4,tuyyyyt4eyq60u48eia9e56pp8#>7er6weryq6iu6eewweere6ryytre",
"yw14iie,yuyuuyq5rue>190u7w78y0ippt<0yuuwtttuqii27ereeer15tyuyuyy",
"yue6pip3yuyre1;*yyy38twuu6900qipprtyuipwututpiu39errewq2ryuyuyuu",
"ue6iipp49894%+%:*238yu9uu5werwuaayeiipp9uuu4iir:=84974@1eyuyuyuy",
"w84ppppO&><%>4pt6,ot33-23*wtytyppaapaaa8iiw,tr56<=&=2&<&>7eyyuyt"
};
